<svg xmlns="http://www.w3.org/2000/svg" xmlns:xlink="http://www.w3.org/1999/xlink" fill="none" version="1.1" width="109" height="38.58407974243164" viewBox="0 0 109 38.58407974243164"><defs><clipPath id="master_svg0_46_7303/1_7763"><rect x="0" y="0" width="109" height="38.58407974243164" rx="0"/></clipPath></defs><g clip-path="url(#master_svg0_46_7303/1_7763)"><g><path d="M0,25.7231L6.3655,25.7231L6.3655,6.43048L25.4632,6.43048L25.4632,0L0,0L0,25.7231Z" fill="#5B29DA" fill-opacity="1"/></g><g><path d="M89.21372310742187,18.582551956176758Q89.23041810742187,21.93884195617676,89.00488110742188,23.97262195617676Q88.77934510742188,26.00641195617676,88.49411010742188,27.34820195617676L90.46200010742187,27.34820195617676Q90.82001010742188,26.81534195617676,91.12433010742187,23.97262195617676Q91.31528010742187,22.164281956176758,91.33437010742188,18.582551956176758L89.21372310742187,18.582551956176758Z" fill="#5B29DA" fill-opacity="1"/></g><g><path d="M98.4600432446289,18.582551956176758Q98.4433232446289,21.93884195617676,98.6688832446289,23.97262195617676Q98.8944532446289,26.00641195617676,99.1796332446289,27.34820195617676L97.20938324462891,27.34820195617676Q96.8513682446289,26.81534195617676,96.5470502446289,23.97262195617676Q96.35609684462891,22.164281956176758,96.3370132446289,18.582551956176758L98.4600432446289,18.582551956176758Z" fill="#5B29DA" fill-opacity="1"/></g><g><path d="M91.89405067382812,10.62463665008545L92.74135067382812,13.15752665008545L89.89274667382813,13.15752665008545L89.04544067382812,10.62463665008545L91.89405067382812,10.62463665008545Z" fill="#5B29DA" fill-opacity="1"/></g><g><path d="M95.82147349951173,10.62463665008545L94.97417449951172,13.15752665008545L97.82277449951172,13.15752665008545L98.67007449951171,10.62463665008545L95.82147349951173,10.62463665008545Z" fill="#5B29DA" fill-opacity="1"/></g><g><path d="M94.54335430175782,6.46544075012207L95.39066430175781,8.99833075012207L92.57308330175782,8.99833075012207L91.72578430175781,6.46544075012207L94.54335430175782,6.46544075012207Z" fill="#5B29DA" fill-opacity="1"/></g><g><rect x="88.7208480834961" y="7.73248815536499" width="10.273831367492676" height="1.64197838306427" rx="0" fill="#5B29DA" fill-opacity="1"/></g><g><rect x="88.7208480834961" y="13.157526969909668" width="10.273831367492676" height="1.64197838306427" rx="0" fill="#5B29DA" fill-opacity="1"/></g><g><rect x="100.96614837646484" y="12.085780143737793" width="8.033852577209473" height="1.64197838306427" rx="0" fill="#5B29DA" fill-opacity="1"/></g><g><rect x="88.7208480834961" y="15.973725318908691" width="10.273831367492676" height="1.64197838306427" rx="0" fill="#5B29DA" fill-opacity="1"/></g><g><rect x="92.37617492675781" y="13.876043319702148" width="2.663630247116089" height="13.4782075881958" rx="0" fill="#5B29DA" fill-opacity="1"/></g><g><rect x="105.45565032958984" y="12.906769752502441" width="2.7185258865356445" height="14.448685646057129" rx="0" fill="#5B29DA" fill-opacity="1"/></g><g><path d="M100.48046419238281,8.391934323883056Q100.59980219238281,21.583184323883057,100.3050111923828,23.596484323883057Q100.01022019238282,25.609784323883055,99.62837219238281,27.354284323883057L102.1488121923828,27.354284323883057Q102.63449219238281,26.413884323883057,103.02234219238281,23.596484323883057Q103.26935219238281,21.807484323883056,103.18585219238281,7.017584323883057L100.48046419238281,8.391934323883056Z" fill="#5B29DA" fill-opacity="1"/></g><g><path d="M109.00120771484374,8.074865234985351L109.00120771484374,6.430475234985352Q107.16340771484374,6.764419234985351,104.26822771484375,6.764419234985351C103.15957771484375,6.764419234985351,102.71683771484375,6.747539234985352,100.48040771484375,6.747539234985352L100.48040771484375,8.391935234985352L102.47932771484375,8.408805234985351L105.38160771484375,8.394345234985352Q107.76837771484375,8.329235234985351,109.00120771484374,8.074865234985351Z" fill="#5B29DA" fill-opacity="1"/></g><g><path d="M67.68391418457031,6.8222832679748535L67.68391418457031,26.955183267974853L82.80521418457032,26.955183267974853C83.72801418457031,26.955183267974853,84.47601418457032,26.199583267974855,84.47601418457032,25.267383267974854L84.47601418457032,6.8222832679748535L67.68391418457031,6.8222832679748535ZM81.39351418457031,15.907413267974853L70.77237418457031,15.907413267974853L70.77237418457031,8.794583267974854L81.39351418457031,8.794583267974854L81.39351418457031,15.907413267974853ZM80.92691418457031,25.013083267974853L70.77118418457032,25.013083267974853L70.77118418457032,17.877283267974853L81.39231418457031,17.877283267974853L81.39231418457031,24.540483267974853C81.39231418457031,24.800983267974853,81.18361418457032,25.012383267974855,80.92571418457031,25.013083267974853" fill="#5B29DA" fill-opacity="1"/></g><g><path d="M46.96797180175781,26.96120238342285L62.08927180175781,26.96120238342285C63.01347180175782,26.961902383422853,63.76397180175781,26.20700238342285,63.767271801757815,25.27340238342285L63.767271801757815,6.828302383422852L46.96797180175781,6.828302383422852L46.96797180175781,26.96120238342285ZM60.21447180175781,25.01300238342285L50.058821801757816,25.01300238342285L50.058821801757816,17.87730238342285L60.679971801757816,17.87730238342285L60.679971801757816,24.54050238342285C60.680571801757814,24.80080238342285,60.47227180175781,25.012402383422852,60.21447180175781,25.01300238342285ZM60.679971801757816,15.907412383422852L50.058821801757816,15.907412383422852L50.058821801757816,8.794582383422851L60.679971801757816,8.794582383422851L60.679971801757816,15.907412383422852Z" fill="#5B29DA" fill-opacity="1"/></g><g><path d="M51.35723709960938,33.764232955322264C50.916887099609376,33.345902955322266,50.41447709960938,33.206052955322264,49.82253709960938,33.206052955322264C49.093367099609374,33.206052955322264,48.69120709960937,33.43390295532227,48.69120709960937,33.828122955322264C48.69120709960937,34.222352955322265,49.049227099609375,34.463462955322264,49.84758709960938,34.514082955322266C51.01711709960937,34.590032955322265,52.50047709960938,34.857672955322265,52.50047709960938,36.521352955322264C52.50047709960938,37.625652955322266,51.60782709960937,38.579242955322265,49.835647099609375,38.579242955322265C48.85468709960937,38.579242955322265,47.87373109960937,38.414082955322264,46.971527099609375,37.46168295532227L47.72694809960937,36.356172955322265C48.16610709960938,36.85166295532227,49.172147099609376,37.21936295532227,49.86308709960937,37.23262295532226C50.44189709960938,37.244672955322265,50.98246709960937,36.94087295532226,50.98246709960937,36.482762955322265C50.98246709960937,36.05118295532227,50.62445709960937,35.87998295532226,49.75088709960937,35.82332295532227C48.58136709960937,35.73411295532227,47.185118099609376,35.30132295532226,47.185118099609376,33.87875295532226C47.185118099609376,32.43207395532227,48.66967709960937,31.922122955322266,49.80100709960938,31.922122955322266C50.77004709960937,31.922122955322266,51.49918709960937,32.11259695532227,52.215217099609376,32.74793095532227L51.35723709960938,33.764232955322264Z" fill="#5B29DA" fill-opacity="1"/></g><g><path d="M54.79298514160156,35.7895812701416C54.89324514160156,36.563561270141605,55.56032514160156,37.1229412701416,56.641535141601565,37.1229412701416C57.20720514160156,37.1229412701416,57.954255141601564,36.9071412701416,58.30152514160156,36.5382512701416L59.28248514160156,37.5171612701416C58.628505141601565,38.2031212701416,57.559245141601565,38.5334612701416,56.61645514160156,38.5334612701416C54.47792514160156,38.5334612701416,53.20814514160156,37.1989112701416,53.20814514160156,35.1916412701416C53.20814514160156,33.2868412701416,54.491035141601564,31.9149112701416,56.50308514160156,31.9149112701416C58.578365141601566,31.9149112701416,59.87319514160156,33.2108912701416,59.634525141601564,35.7896012701416L54.79298514160156,35.7895812701416ZM58.16310514160156,34.5056512701416C58.062845141601564,33.693101270141604,57.433935141601566,33.286831270141604,56.553225141601565,33.286831270141604C55.717865141601564,33.286831270141604,55.044805141601564,33.693101270141604,54.818045141601566,34.5056512701416L58.16310514160156,34.5056512701416Z" fill="#5B29DA" fill-opacity="1"/></g><g><path d="M65.38546369995117,38.368269169921874L65.38546369995117,35.09034916992187C65.38546369995117,34.137949169921875,64.86991369995117,33.413399169921874,63.88895369995117,33.413399169921874C62.94619369995117,33.413399169921874,62.30413369995117,34.21389916992187,62.30413369995117,35.16629916992188L62.30413369995117,38.36827916992188L60.78257369995117,38.36827916992188L60.78257369995117,32.092109769921876L62.153773699951174,32.092109769921876L62.25402369995117,32.94324516992187C62.88294369995117,32.32117016992188,63.510663699951174,32.002899169921875,64.29113369995117,32.002899169921875C65.75064369995117,32.002899169921875,66.91657369995117,33.10840916992188,66.91657369995117,35.07708916992188L66.91657369995117,38.36827916992188L65.38546369995117,38.368269169921874Z" fill="#5B29DA" fill-opacity="1"/></g><g><path d="M72.2939360131836,33.764232955322264C71.85358601318359,33.345902955322266,71.35117601318359,33.206052955322264,70.7592360131836,33.206052955322264C70.0300660131836,33.206052955322264,69.6267160131836,33.43390295532227,69.6267160131836,33.828122955322264C69.6267160131836,34.222352955322265,69.99189601318359,34.463462955322264,70.78428601318359,34.514082955322266C71.9538160131836,34.590032955322265,73.43717601318359,34.857672955322265,73.43717601318359,36.521352955322264C73.43717601318359,37.625652955322266,72.5445260131836,38.579242955322265,70.7723460131836,38.579242955322265C69.7913860131836,38.579242955322265,68.81043001318359,38.414082955322264,67.9082260131836,37.46168295532227L68.66364701318359,36.356172955322265C69.1028060131836,36.85166295532227,70.1088460131836,37.21936295532227,70.79978601318359,37.23262295532226C71.3785960131836,37.244672955322265,71.9191660131836,36.94087295532226,71.9191660131836,36.482762955322265C71.9191660131836,36.05118295532227,71.5683260131836,35.87998295532226,70.68758601318359,35.82332295532227C69.5180660131836,35.73411295532227,68.12181701318359,35.30132295532226,68.12181701318359,33.87875295532226C68.12181701318359,32.43207395532227,69.60637601318359,31.922122955322266,70.7377060131836,31.922122955322266C71.70674601318359,31.922122955322266,72.43588601318359,32.11259695532227,73.1519160131836,32.74793095532227L72.2939360131836,33.764232955322264Z" fill="#5B29DA" fill-opacity="1"/></g><g><path d="M75.7284938696289,35.7895812701416C75.82875386962891,36.563561270141605,76.49583386962891,37.1229412701416,77.57704386962891,37.1229412701416C78.1427138696289,37.1229412701416,78.88976386962891,36.9071412701416,79.2370338696289,36.5382512701416L80.21799386962891,37.5171612701416C79.5628238696289,38.2031212701416,78.49475386962891,38.5334612701416,77.55076386962891,38.5334612701416C75.4134338696289,38.5334612701416,74.1436538696289,37.1989112701416,74.1436538696289,35.1916412701416C74.1436538696289,33.2868412701416,75.4265438696289,31.9149112701416,77.4385938696289,31.9149112701416C79.5126838696289,31.9149112701416,80.8087038696289,33.2108912701416,80.5700338696289,35.7896012701416L75.7284938696289,35.7895812701416ZM79.0986138696289,34.5056512701416C78.9983538696289,33.693101270141604,78.36944386962891,33.286831270141604,77.4887338696289,33.286831270141604C76.65337386962891,33.286831270141604,75.9791238696289,33.693101270141604,75.7535538696289,34.5056512701416L79.0986138696289,34.5056512701416Z" fill="#5B29DA" fill-opacity="1"/></g><g><path d="M86.32215879882813,38.368269169921874L86.32215879882813,35.09034916992187C86.32215879882813,34.137949169921875,85.80660879882812,33.413399169921874,84.82564879882813,33.413399169921874C83.88288879882812,33.413399169921874,83.24082879882812,34.21389916992187,83.24082879882812,35.16629916992188L83.24082879882812,38.36827916992188L81.71926879882812,38.36827916992188L81.71926879882812,32.092109769921876L83.09046879882813,32.092109769921876L83.19071879882813,32.94324516992187C83.81963879882812,32.32117016992188,84.44735879882812,32.002899169921875,85.22782879882813,32.002899169921875C86.68613879882813,32.002899169921875,87.85326879882813,33.10840916992188,87.85326879882813,35.07708916992188L87.85326879882813,38.36827916992188L86.32215879882813,38.368269169921874Z" fill="#01FFB9" fill-opacity="1"/></g><g><path d="M95.06129528076173,35.24345865356445C95.06129528076173,37.05180865356445,93.84166528076172,38.50811865356445,91.82960528076171,38.50811865356445C89.81755528076172,38.50811865356445,88.60747528076172,37.04697865356445,88.60747528076172,35.24345865356445C88.60747528076172,33.439938653564454,89.84024528076172,31.977588653564453,91.81527528076172,31.977588653564453C93.79029528076173,31.977588653564453,95.05888528076171,33.451988653564456,95.05888528076171,35.24345865356445M90.14214528076172,35.24345865356445C90.14214528076172,36.19585865356446,90.70781528076172,37.08435865356445,91.82721528076172,37.08435865356445C92.94662528076172,37.08435865356445,93.51109528076172,36.19585865356446,93.51109528076172,35.24345865356445C93.51109528076172,34.291058653564455,92.85831528076172,33.38808865356445,91.82721528076172,33.38808865356445C90.72095528076171,33.38808865356445,90.14214528076172,34.30310865356445,90.14214528076172,35.24345865356445Z" fill="#01FFB9" fill-opacity="1"/></g><g><path d="M102.14520810302734,32.09211730957031L99.50425810302734,38.39359730957031L97.84545810302734,38.39359730957031L95.19136810302734,32.09211730957031L96.86448810302734,32.09211730957031L97.71895810302735,34.16327730957031L98.67484810302734,36.80586730957031L99.61762810302734,34.18858730957031L100.47327810302734,32.09211730957031L102.14520810302734,32.09211730957031Z" fill="#01FFB9" fill-opacity="1"/></g><g><path d="M107.5297563305664,32.10537208410644L109.0012063305664,32.10537208410644L109.0012063305664,38.374308084106445L107.55480633056641,38.374308084106445L107.47963633056641,37.45928808410645C107.1216263305664,38.19588808410644,106.15975633056641,38.55153808410645,105.4676163305664,38.56479808410644C103.6309863305664,38.576848084106445,102.2729263305664,37.43397808410644,102.2729263305664,35.236238084106446C102.2729263305664,33.07706808410644,103.6942663305664,31.946243684106445,105.5046163305664,31.958311099106446C106.3340363305664,31.958311099106446,107.12640633056641,32.35253308410645,107.47963633056641,32.97460808410644L107.5297563305664,32.10537208410644ZM103.80759633056641,35.23019808410645C103.80759633056641,36.424918084106444,104.62385633056641,37.13620808410644,105.64300633056641,37.13620808410644C108.0572163305664,37.13620808410644,108.0572163305664,33.33746808410645,105.64300633056641,33.33746808410645C104.62385633056641,33.33746808410645,103.80759633056641,34.03549808410644,103.80759633056641,35.23019808410645Z" fill="#01FFB9" fill-opacity="1"/></g><g><rect x="25.463207244873047" y="12.862164497375488" width="12.73100757598877" height="12.862164497375488" rx="0" fill="#01FFB9" fill-opacity="1"/></g><g><path d="M12.732200622558594,38.58532164306641L25.463200622558595,38.58532164306641L25.463200622558595,25.723121643066406L12.732200622558594,25.723121643066406L12.732200622558594,38.58532164306641Z" fill="#01FFB9" fill-opacity="1"/></g><g><path d="M25.463197709655763,6.430475234985352L6.369097709655762,6.430475234985352L6.369097709655762,25.719475234985353L12.735807709655763,25.719475234985353L12.735807709655763,12.857345234985353L25.463197709655763,12.857345234985353L25.463197709655763,6.430475234985352ZM25.463197709655763,38.58407523498535L38.195397709655765,38.58407523498535L38.195397709655765,25.72307523498535L25.463197709655763,25.72307523498535L25.463197709655763,38.58407523498535Z" fill="#5B29DA" fill-opacity="1"/></g><g><path d="M6.365503787994385,6.430479049682617L6.365503787994385,6.860865049682618L12.731003787994386,13.291349049682617L12.731003787994386,12.862159049682617L13.157043787994386,12.862159049682617L6.791541787994385,6.430479049682617L6.365503787994385,6.430479049682617Z" fill="#01FFB9" fill-opacity="1"/></g><g><path d="M8.412155151367188,6.430479049682617L14.777655151367188,12.862159049682617L15.629735151367187,12.862159049682617L9.263037151367188,6.430479049682617L8.412155151367188,6.430479049682617Z" fill="#01FFB9" fill-opacity="1"/></g><g><path d="M10.883649826049805,6.430479049682617L17.250349826049806,12.862159049682617L18.101229826049803,12.862159049682617L11.735724826049804,6.430479049682617L10.883649826049805,6.430479049682617Z" fill="#01FFB9" fill-opacity="1"/></g><g><path d="M13.356339454650879,6.430479049682617L19.72183945465088,12.862159049682617L20.57272945465088,12.862159049682617L14.20722145465088,6.430479049682617L13.356339454650879,6.430479049682617Z" fill="#01FFB9" fill-opacity="1"/></g><g><path d="M15.829028129577637,6.430479049682617L22.194528129577638,12.862159049682617L23.045418129577637,12.862159049682617L16.679910129577635,6.430479049682617L15.829028129577637,6.430479049682617Z" fill="#01FFB9" fill-opacity="1"/></g><g><path d="M18.300525665283203,6.430479049682617L24.666025665283204,12.862159049682617L25.463205665283205,12.862159049682617L25.463205665283205,12.806709049682617L19.151406665283204,6.430479049682617L18.300525665283203,6.430479049682617Z" fill="#01FFB9" fill-opacity="1"/></g><g><path d="M20.77202033996582,6.430479049682617L25.46321033996582,11.169549049682617L25.46321033996582,10.309979049682617L21.62290233996582,6.430479049682617L20.77202033996582,6.430479049682617Z" fill="#01FFB9" fill-opacity="1"/></g><g><path d="M25.463209014892577,7.812059049682617L24.095591014892577,6.430479049682617L23.244709014892578,6.430479049682617L25.463209014892577,8.672829049682617L25.463209014892577,7.812059049682617Z" fill="#01FFB9" fill-opacity="1"/></g><g><path d="M6.365503787994385,24.341545462768554L7.733123787994385,25.723117462768556L8.584003787994385,25.723117462768556L6.365503787994385,23.481977462768555L6.365503787994385,24.341545462768554Z" fill="#01FFB9" fill-opacity="1"/></g><g><path d="M6.365503787994385,21.84482184338379L10.204613787994385,25.723118843383787L11.056693787994384,25.723118843383787L6.365503787994385,20.98404884338379L6.365503787994385,21.84482184338379Z" fill="#01FFB9" fill-opacity="1"/></g><g><path d="M6.365503787994385,19.346893575683595L12.677303787994385,25.723117575683595L12.731003787994386,25.723117575683595L12.731003787994386,24.917807575683593L6.365503787994385,18.487327575683594L6.365503787994385,19.346893575683595Z" fill="#01FFB9" fill-opacity="1"/></g><g><path d="M6.365503787994385,16.850171002624514L12.731003787994386,23.28064800262451L12.731003787994386,22.41987800262451L6.365503787994385,15.989398002624512L6.365503787994385,16.850171002624514Z" fill="#01FFB9" fill-opacity="1"/></g><g><path d="M6.365503787994385,14.352241873901367L12.731003787994386,20.782723873901368L12.731003787994386,19.923153873901366L6.365503787994385,13.492673873901367L6.365503787994385,14.352241873901367Z" fill="#01FFB9" fill-opacity="1"/></g><g><path d="M6.365503787994385,11.85551769885254L12.731003787994386,18.28600069885254L12.731003787994386,17.42643069885254L6.365503787994385,10.995950698852539L6.365503787994385,11.85551769885254Z" fill="#01FFB9" fill-opacity="1"/></g><g><path d="M6.365503787994385,9.357589125793456L12.731003787994386,15.789271125793457L12.731003787994386,14.928501125793456L6.365503787994385,8.498021125793457L6.365503787994385,9.357589125793456Z" fill="#01FFB9" fill-opacity="1"/></g></g></svg>